<svg width="36" height="36" viewBox="0 0 36 36" fill="none" xmlns="http://www.w3.org/2000/svg">
<circle cx="18" cy="18" r="15.75" fill="url(#paint0_linear_3_2751)"/>
<path d="M20.7527 9.73579C21.0931 9.1416 20.8896 8.38267 20.2981 8.04068C19.7067 7.69869 18.9513 7.90314 18.6109 8.49733L18.0172 9.53372L17.4234 8.49733C17.083 7.90314 16.3276 7.69869 15.7362 8.04068C15.1448 8.38267 14.9413 9.1416 15.2817 9.73579L16.5915 12.0222L12.4484 19.2543H9.11059C8.42819 19.2543 7.875 19.81 7.875 20.4956C7.875 21.1812 8.42819 21.737 9.11059 21.737H20.7365C20.8384 21.4679 20.9457 21.0062 20.8316 20.5818C20.66 19.9439 20.025 19.2543 18.961 19.2543H15.2997L20.7527 9.73579Z" fill="white"/>
<path d="M13.091 23.1097C12.8801 22.8744 12.4078 22.4986 11.9936 22.3749C11.3621 22.1862 10.8834 22.3046 10.6419 22.4077L9.72149 24.0142C9.38108 24.6084 9.58458 25.3673 10.176 25.7093C10.7675 26.0513 11.5229 25.8469 11.8633 25.2527L13.091 23.1097Z" fill="white"/>
<path d="M25.0082 21.737H26.8894C27.5718 21.737 28.125 21.1812 28.125 20.4956C28.125 19.81 27.5718 19.2543 26.8894 19.2543H23.5859L19.8647 12.7587C19.5883 13.0226 19.0583 13.6969 18.9782 14.4613C18.8752 15.444 19.0297 16.2716 19.493 17.0819C21.0508 19.8063 22.611 22.5295 24.1711 25.2527C24.5115 25.8469 25.2669 26.0513 25.8583 25.7093C26.4497 25.3673 26.6532 24.6084 26.3128 24.0142L25.0082 21.737Z" fill="white"/>
<defs>
<linearGradient id="paint0_linear_3_2751" x1="18" y1="2.25" x2="18" y2="33.75" gradientUnits="userSpaceOnUse">
<stop stop-color="#2AC9FA"/>
<stop offset="1" stop-color="#1F65EB"/>
</linearGradient>
</defs>
</svg>
