<svg width="120" height="120" viewBox="0 0 120 120" fill="none" xmlns="http://www.w3.org/2000/svg">
<path d="M61.7292 59.1452C61.4792 58.1452 61.3334 57.3327 61.0626 56.541C58.3542 48.541 54.0001 41.416 49.0417 34.6452C48.4584 33.8535 47.7292 33.1035 46.9167 32.6035C46.4792 32.3327 45.6042 32.3744 45.1042 32.6452C44.7292 32.8535 44.4584 33.666 44.5417 34.1244C44.6876 34.9994 45.0001 35.8952 45.4376 36.6869C48.3126 41.916 51.2084 47.1244 54.1459 52.3119C55.2501 54.2494 56.4167 56.166 57.5626 58.0827C57.9376 58.7285 58.3542 59.3535 58.7917 59.9369C59.2709 60.6035 60.0001 60.9994 60.7292 60.5619C61.2084 60.2702 61.7292 60.0619 61.7292 59.1452Z" fill="#CD4631"/>
<path d="M32.2291 90.1667C33.2291 90 34.3958 89.875 35.5208 89.625C39.9583 88.625 44.3958 87.625 48.8125 86.5833C49.7708 86.3542 50.7083 85.9583 51.5625 85.5C52.7083 84.8958 53.1041 84.0417 52.9166 83.1042C52.7291 82.1667 51.9792 81.5833 50.6667 81.5625C49.7708 81.5417 48.8125 81.5625 47.9583 81.7708C42.3541 83.1875 36.75 84.6458 31.1667 86.125C30.5417 86.2917 29.8958 86.5833 29.4167 87C28.2083 88.0208 28.5833 89.625 30.125 90.0208C30.7292 90.1667 31.4166 90.1042 32.2291 90.1667Z" fill="#CD4631"/>
<path d="M90.7708 34.3121C90.6875 33.333 90.4791 32.3538 90.2291 31.3955C90 30.5413 89.4166 29.9371 88.4791 29.8538C87.6875 29.7913 86.8333 30.583 86.7083 31.6246C86.5416 33.0205 86.3958 34.4371 86.4583 35.833C86.6458 40.0413 86.9166 44.2705 87.2083 48.4788C87.3125 49.8746 87.5 51.2705 87.7291 52.6663C87.8125 53.1455 87.9791 53.6455 88.25 54.0205C88.9791 55.083 90.3125 54.9996 90.8333 53.8538C91.125 53.208 91.25 52.4163 91.25 51.708C91.3541 49.3746 91.0416 37.7705 90.7708 34.3121Z" fill="#CD4631"/>
</svg>
