<svg width="136" height="136" viewBox="0 0 136 136" fill="none" xmlns="http://www.w3.org/2000/svg">
<path d="M95.1227 76.2306C92.7312 76.2179 90.7058 76.2578 88.6873 76.1828C85.2635 76.0696 81.8872 75.8054 78.7189 74.2538C75.506 72.6764 73.7606 70.1025 73.8401 66.5997C73.8923 64.4491 74.5278 62.3181 74.9781 60.199C75.1585 59.3714 75.5752 58.5811 76.0234 57.3927C74.3415 58.2455 73.0309 58.936 71.6928 59.5711C68.4298 61.1367 65.2279 62.8367 61.8785 64.1741C57.298 66.0298 53.8192 64.398 52.1151 59.7267C51.4482 57.8944 51.2229 55.881 50.8162 53.9413C50.6975 53.3572 50.6639 52.7629 50.5755 52.0577C48.2324 54.5708 46.041 56.993 43.7712 59.3105C38.47 64.7151 33.5137 61.5562 31.5059 56.6897C30.9687 55.3883 30.7409 53.9285 30.5023 52.522C30.3744 51.5759 30.7597 50.6683 31.8059 50.5388C32.752 50.4109 33.2299 51.1627 33.4859 52.0242C33.7504 52.8708 33.9595 53.7448 34.3116 54.5428C34.7248 55.4753 35.1529 56.4163 35.7412 57.2516C37.4004 59.5973 39.226 59.9376 41.4871 58.1503C43.0856 56.8925 44.5063 55.3932 45.9247 53.9323C47.2447 52.5731 48.5075 51.1413 49.7703 49.7094C50.4295 48.9798 51.1184 48.2673 52.1885 48.5085C53.4181 48.7823 53.622 49.8714 53.8155 50.8753C54.0697 52.152 54.1299 53.4556 54.4544 54.7135C54.8434 56.306 55.2707 57.9008 55.8965 59.3921C56.7521 61.4126 57.8868 61.9884 60.0061 61.408C62.0317 60.8527 64.0727 60.1675 65.9869 59.2901C70.0777 57.3896 74.0839 55.3609 78.0987 53.3174C79.0507 52.8361 79.9098 52.6184 80.7436 53.3377C81.5413 54.0163 81.4031 54.908 81.0499 55.7944C80.4168 57.3718 79.7071 58.9445 79.1569 60.5498C78.68 61.9596 78.2156 63.4163 78.0047 64.8805C77.4314 68.7921 78.8104 70.9363 82.5055 72.2965C85.2821 73.3247 88.1699 73.7826 91.1104 73.8745C93.229 73.9478 95.3482 73.8827 97.4565 73.8708C98.5725 73.8609 99.7267 73.8533 100.228 75.1141C100.687 76.3108 99.9716 77.2063 99.2289 78.0463C98.9079 78.3962 98.536 78.697 98.179 79.0063C97.4501 79.6164 96.7486 80.2819 95.9626 80.8193C90.1437 84.8545 89.3371 90.4751 90.9423 96.7943C91.2417 97.9583 91.9077 99.0367 92.4416 100.138C92.7011 100.684 93.1333 101.172 93.3225 101.737C93.4676 102.138 93.5052 102.794 93.2677 103.034C93.0131 103.303 92.3656 103.326 91.9675 103.294C91.1033 103.211 90.2329 102.59 89.7332 101.945C88.7487 100.662 87.8094 99.2676 87.2453 97.7723C85.9823 94.4659 85.7912 90.9853 86.2179 87.4649C86.5827 84.4638 88.1329 82.0878 90.3202 80.1191C91.7654 78.8521 93.2953 77.7132 95.1227 76.2306Z" fill="#81ADC8"/>
</svg>
