<svg width="240" height="240" viewBox="0 0 240 240" fill="none" xmlns="http://www.w3.org/2000/svg">
<path d="M116.542 118.29C117.042 116.29 117.333 114.665 117.875 113.082C123.292 97.0821 132 82.8321 141.917 69.2904C143.083 67.7071 144.542 66.2071 146.167 65.2071C147.042 64.6654 148.792 64.7487 149.792 65.2904C150.542 65.7071 151.083 67.3321 150.917 68.2487C150.625 69.9987 150 71.7904 149.125 73.3737C143.375 83.8321 137.583 94.2487 131.708 104.624C129.5 108.499 127.167 112.332 124.875 116.165C124.125 117.457 123.292 118.707 122.417 119.874C121.458 121.207 120 121.999 118.542 121.124C117.583 120.54 116.542 120.124 116.542 118.29Z" fill="#CD4631"/>
<path d="M175.542 180.333C173.542 180 171.208 179.75 168.958 179.25C160.083 177.25 151.208 175.25 142.375 173.167C140.458 172.708 138.583 171.917 136.875 171C134.583 169.792 133.792 168.083 134.167 166.208C134.542 164.333 136.042 163.167 138.667 163.125C140.458 163.083 142.375 163.125 144.083 163.542C155.292 166.375 166.5 169.292 177.667 172.25C178.917 172.583 180.208 173.167 181.167 174C183.583 176.042 182.833 179.25 179.75 180.042C178.542 180.333 177.167 180.208 175.542 180.333Z" fill="#CD4631"/>
<path d="M58.4584 68.6243C58.6251 66.666 59.0417 64.7077 59.5417 62.791C60.0001 61.0827 61.1667 59.8743 63.0417 59.7077C64.6251 59.5827 66.3334 61.166 66.5834 63.2493C66.9167 66.041 67.2084 68.8743 67.0834 71.666C66.7084 80.0827 66.1667 88.541 65.5834 96.9577C65.375 99.7493 65 102.541 64.5417 105.333C64.375 106.291 64.0417 107.291 63.5 108.041C62.0417 110.166 59.3751 109.999 58.3334 107.708C57.7501 106.416 57.5001 104.833 57.5001 103.416C57.2917 98.7493 57.9167 75.541 58.4584 68.6243Z" fill="#CD4631"/>
</svg>
