<svg width="105" height="105" viewBox="0 0 105 105" fill="none" xmlns="http://www.w3.org/2000/svg">
<path d="M89.9245 62.3435C85.8777 61.3044 79.0599 60.1925 76.5443 58.4789C75.5052 57.768 75.6328 56.9841 75.8151 56.4372C75.9974 55.9268 77.0365 55.3982 77.6745 55.4346C79.1146 55.4893 80.5547 55.7992 81.9401 56.182C85.0209 57.0206 88.0834 57.8956 91.1094 58.8982C92.7136 59.4268 93.224 60.6482 92.2943 61.432C91.7474 61.8878 91.237 62.3435 89.9245 62.3435Z" fill="#CD4631"/>
<path d="M26.1222 90.5076C26.3045 89.5414 26.6691 89.031 27.1977 88.2836C29.2576 85.4034 31.4087 82.5779 33.5232 79.7523C33.6509 79.5883 33.7967 79.406 33.9607 79.2784C34.6899 78.6586 35.5102 77.9294 36.4581 78.6039C37.4061 79.2966 37.0779 80.3174 36.5675 81.1378C34.4529 84.5831 32.3019 88.0102 30.1144 91.419C29.7863 91.9477 29.2212 92.4034 28.6561 92.6768C27.2524 93.3513 26.0128 92.4216 26.1222 90.5076Z" fill="#CD4631"/>
<path d="M71.677 89.87C71.677 90.6903 71.039 91.2737 70.565 91.3648C69.927 91.4924 69.3801 91.383 68.4687 90.7633C68.1588 90.5627 67.9765 90.0705 67.7942 89.6877C66.4634 86.8075 65.1145 83.9455 63.8202 81.0471C63.4921 80.3362 63.164 79.5158 63.2187 78.7684C63.2733 78.094 63.6926 77.1278 64.2395 76.8908C64.7681 76.6539 65.4791 76.5809 66.3176 77.4013C66.6275 77.6929 66.9192 78.1851 67.1197 78.6408C68.4322 81.6851 69.7447 84.7294 71.0207 87.7919C71.2577 88.3752 71.4036 89.0132 71.677 89.87Z" fill="#CD4631"/>
<path d="M13.8176 64.7502C12.9791 64.5132 12.4322 64.1122 12.3046 63.5653C12.1406 62.8726 12.4869 61.9429 12.888 61.2866C13.1979 60.7945 13.9088 60.4846 14.5103 60.284C17.5182 59.2814 20.5442 58.2971 23.5885 57.3674C24.0989 57.2033 24.7551 57.1486 25.2473 57.3127C26.0494 57.5861 26.3958 58.2241 25.7395 58.9898C25.3749 59.4273 24.9557 59.883 24.4635 60.12C21.6197 61.5419 18.7577 62.909 15.8775 64.258C15.3489 64.495 14.638 65.0054 13.8176 64.7502Z" fill="#CD4631"/>
<path d="M75.5781 33.4689C75.1771 33.3049 74.8308 32.6486 74.8125 32.2111C74.7943 31.6095 74.9766 30.8804 75.3412 30.3882C77.0365 28.0549 78.8229 25.758 80.5912 23.4793C80.8464 23.133 81.1927 22.8595 81.5391 22.5861C82.3229 21.9845 83.3438 21.4559 84.0365 22.3674C84.4375 22.896 84.5651 24.245 84.1823 24.7007C81.849 27.5444 79.3334 30.2606 76.836 32.9767C76.6354 33.2137 76.2344 33.5965 75.5781 33.4689Z" fill="#CD4631"/>
<path d="M17.1353 29.5132C18.1561 29.8231 18.94 30.0054 19.6874 30.2788C21.8567 31.0627 24.0259 31.8647 26.177 32.6851C26.7785 32.922 27.4166 33.159 27.9088 33.5418C28.2551 33.8153 28.6379 34.508 28.5103 34.7632C28.2916 35.1825 27.9634 35.7111 27.216 35.6564C26.9061 35.6382 26.5051 35.62 26.1588 35.5288C23.716 34.8726 21.2733 34.2528 18.8489 33.5236C18.0285 33.2866 17.1718 32.9403 16.5155 32.4116C16.0416 32.0288 15.6041 31.172 15.7317 30.6616C15.841 30.1877 16.2421 29.5132 17.1353 29.5132Z" fill="#CD4631"/>
<path d="M50.4947 21.966C50.4765 22.1848 50.4583 22.4035 50.3853 22.6041C50.0754 23.4973 49.8749 24.4999 48.6171 24.4088C47.2864 24.3176 47.2317 23.2239 47.2499 22.3306C47.3046 20.1796 47.5051 18.0285 47.6692 15.8593C47.7421 15.0754 47.8333 14.2733 48.052 13.5259C48.2708 12.7603 48.5807 11.9765 49.6379 12.1041C50.6223 12.2317 50.9504 12.8879 50.9687 13.7629C50.9687 14.7108 50.677 20.1796 50.4947 21.966Z" fill="#CD4631"/>
</svg>
