<svg width="25" height="24" viewBox="0 0 25 24" fill="none" xmlns="http://www.w3.org/2000/svg">
<g clip-path="url(#clip0_3_2672)">
<path d="M12.5 0C10.1266 0 7.80654 0.70378 5.83313 2.02233C3.85979 3.34094 2.32173 5.21511 1.41342 7.40778C0.505187 9.60052 0.267552 12.0133 0.730606 14.3411C1.19359 16.6689 2.33646 18.807 4.01471 20.4853C5.69295 22.1635 7.83118 23.3064 10.1589 23.7694C12.4867 24.2324 14.8995 23.9948 17.0922 23.0865C19.2849 22.1783 21.1591 20.6402 22.4777 18.6668C23.7962 16.6935 24.5 14.3734 24.5 12C24.5 8.81738 23.2357 5.76516 20.9853 3.51474C18.7348 1.26425 15.6826 0 12.5 0ZM18.0068 17.3057C17.9557 17.3905 17.8883 17.4643 17.8085 17.5228C17.7286 17.5813 17.638 17.6234 17.5417 17.6465C17.4455 17.6697 17.3456 17.6735 17.2479 17.6577C17.1501 17.6419 17.0565 17.6069 16.9725 17.5547C14.1569 15.8308 10.6133 15.4477 6.43776 16.3959C6.34275 16.4185 6.24425 16.4221 6.14784 16.4064C6.0515 16.3906 5.95914 16.3559 5.87635 16.3043C5.79348 16.2526 5.72171 16.185 5.66517 16.1054C5.60862 16.0257 5.56855 15.9357 5.54712 15.8404C5.52429 15.7448 5.52066 15.6457 5.53623 15.5486C5.55186 15.4516 5.58642 15.3586 5.63801 15.275C5.6896 15.1914 5.75725 15.1188 5.8369 15.0613C5.91663 15.0039 6.00689 14.9627 6.10253 14.9401C10.6708 13.8962 14.5974 14.3464 17.7578 16.2809C17.9264 16.384 18.0473 16.5498 18.094 16.7418C18.1407 16.9339 18.1093 17.1367 18.0068 17.3057ZM19.4721 14.0399C19.3383 14.2458 19.1304 14.3923 18.8916 14.4494C18.6528 14.5064 18.4012 14.4695 18.1888 14.3464C14.5474 12.3151 10.2486 11.8122 6.23664 12.9481C6.11182 13.0177 5.97296 13.0585 5.83034 13.0674C5.68765 13.0764 5.54481 13.0533 5.41224 12.9998C5.27967 12.9464 5.16079 12.864 5.06424 12.7586C4.96769 12.6532 4.89592 12.5275 4.85425 12.3909C4.81257 12.2541 4.80203 12.1098 4.82339 11.9685C4.84475 11.8271 4.89746 11.6924 4.97767 11.5741C5.05788 11.4558 5.16358 11.357 5.28694 11.2848C5.41036 11.2127 5.54831 11.1691 5.69072 11.1572C7.93004 10.5126 10.2756 10.322 12.5896 10.5967C14.9036 10.8713 17.1394 11.6057 19.1656 12.7566C19.3715 12.8904 19.518 13.0982 19.5751 13.337C19.6321 13.5759 19.5952 13.8275 19.4721 14.0399ZM19.5966 10.6401C15.7658 8.34155 9.35878 8.13085 5.66203 9.25138C5.37755 9.33779 5.07038 9.30758 4.80817 9.16744C4.54596 9.02737 4.35015 8.78886 4.26379 8.50436C4.17743 8.21994 4.20759 7.91276 4.3477 7.65052C4.48774 7.38834 4.72628 7.19251 5.01076 7.10617C9.25343 5.82283 16.2925 6.07184 20.7459 8.70548C20.9748 8.86935 21.1337 9.11336 21.1909 9.38905C21.2481 9.66468 21.1994 9.95178 21.0546 10.1933C20.9097 10.4347 20.6793 10.6127 20.4092 10.6919C20.139 10.7712 19.8489 10.7458 19.5966 10.6209V10.6401Z" fill="black"/>
</g>
<defs>
<clipPath id="clip0_3_2672">
<rect width="24" height="24" fill="white" transform="translate(0.5)"/>
</clipPath>
</defs>
</svg>
