<svg width="20" height="20" viewBox="0 0 20 20" fill="none" xmlns="http://www.w3.org/2000/svg">
<path d="M5.28172 12.3705C5.37939 11.5618 5.71106 11.109 6.33608 10.6449C7.23037 10.0162 8.34746 10.3718 8.34746 10.3718V8.26234C8.61904 8.2554 8.89072 8.2715 9.15934 8.31045V11.0251C9.15934 11.0251 8.04258 10.6696 7.1483 11.2985C6.52362 11.7623 6.19127 12.2154 6.09394 13.0241C6.09089 13.4632 6.1733 14.0372 6.55278 14.5336C6.45896 14.4855 6.36332 14.4306 6.26588 14.3691C5.42992 13.8078 5.27765 12.9656 5.28172 12.3705ZM13.7718 4.36192C13.1567 3.6878 12.924 3.00718 12.8399 2.52905H13.6138C13.6138 2.52905 13.4595 3.78271 14.5841 5.01557L14.5997 5.03215C14.2966 4.8415 14.0186 4.61646 13.7718 4.36192ZM17.4999 6.27313V8.93322C17.4999 8.93322 16.5124 8.89454 15.7815 8.70862C14.7611 8.44859 14.1052 8.04977 14.1052 8.04977C14.1052 8.04977 13.6521 7.76537 13.6155 7.74554V13.2386C13.6155 13.5445 13.5317 14.3083 13.2764 14.9454C12.943 15.7788 12.4286 16.3258 12.3339 16.4376C12.3339 16.4376 11.7082 17.1771 10.6044 17.675C9.60937 18.1242 8.73577 18.1129 8.47464 18.1242C8.47464 18.1242 6.96449 18.184 5.60559 17.3009C5.31174 17.1063 5.03744 16.8858 4.78625 16.6424L4.79304 16.6473C6.15227 17.5304 7.66208 17.4706 7.66208 17.4706C7.92355 17.4592 8.79715 17.4706 9.79182 17.0214C10.8947 16.5234 11.5214 15.784 11.5214 15.784C11.615 15.6722 12.1318 15.1251 12.4638 14.2914C12.7185 13.6547 12.803 12.8905 12.803 12.5847V7.09222C12.8396 7.11237 13.2923 7.39678 13.2923 7.39678C13.2923 7.39678 13.9485 7.79592 14.969 8.05562C15.7001 8.24154 16.6874 8.28022 16.6874 8.28022V6.19577C17.0251 6.27151 17.313 6.29198 17.4999 6.27313Z" fill="#EE1D52"/>
<path d="M16.6878 6.19577V8.27957C16.6878 8.27957 15.7006 8.24089 14.9694 8.05497C13.949 7.79494 13.2928 7.39613 13.2928 7.39613C13.2928 7.39613 12.84 7.11172 12.8034 7.09157V12.5853C12.8034 12.8912 12.7196 13.6553 12.4643 14.2921C12.1309 15.1258 11.6164 15.6728 11.5218 15.7846C11.5218 15.7846 10.8958 16.5241 9.79226 17.022C8.79759 17.4712 7.92399 17.4599 7.66252 17.4712C7.66252 17.4712 6.15271 17.531 4.79348 16.6479L4.78669 16.643C4.64319 16.5041 4.50811 16.3574 4.38211 16.2036C3.94836 15.6748 3.68249 15.0494 3.61568 14.871C3.61556 14.8702 3.61556 14.8694 3.61568 14.8687C3.50817 14.5586 3.28231 13.8139 3.31317 13.0927C3.36777 11.8202 3.81542 11.0391 3.93378 10.8434C4.24724 10.3099 4.65493 9.83245 5.13871 9.43247C5.56562 9.08732 6.0495 8.81271 6.57052 8.61988C7.13376 8.39348 7.73688 8.27214 8.34756 8.26234V10.3718C8.34756 10.3718 7.23047 10.0175 6.33652 10.6449C5.7115 11.109 5.37983 11.5618 5.28216 12.3705C5.27809 12.9656 5.43036 13.8078 6.26564 14.3694C6.36308 14.4312 6.45872 14.486 6.55254 14.5339C6.69847 14.7236 6.87608 14.8889 7.0782 15.0231C7.89414 15.5396 8.57783 15.5756 9.45211 15.2402C10.0351 15.0159 10.4739 14.5105 10.6774 13.9505C10.8052 13.6007 10.8035 13.2487 10.8035 12.8847V2.52905H12.8383C12.9224 3.00718 13.1551 3.6878 13.7703 4.36192C14.017 4.61646 14.295 4.8415 14.5981 5.03215C14.6876 5.12478 15.1454 5.58276 15.7331 5.86391C16.037 6.00924 16.3574 6.12059 16.6878 6.19577Z" fill="black"/>
<path d="M2.80579 14.2231V14.2248L2.85628 14.3616C2.85048 14.3457 2.83171 14.2973 2.80579 14.2231Z" fill="#69C9D0"/>
<path d="M6.57051 8.6199C6.0495 8.81272 5.56561 9.08734 5.1387 9.43249C4.65477 9.83337 4.24718 10.3118 3.93411 10.8464C3.81576 11.0414 3.3681 11.8231 3.3135 13.0956C3.28264 13.8169 3.5085 14.5615 3.61601 14.8716C3.61589 14.8724 3.61589 14.8731 3.61601 14.8739C3.68383 15.0507 3.94869 15.6761 4.38244 16.2065C4.50844 16.3603 4.64352 16.507 4.78702 16.646C4.32723 16.3412 3.91716 15.9727 3.57023 15.5526C3.14021 15.0283 2.87501 14.4094 2.80583 14.2268C2.80574 14.2255 2.80574 14.2242 2.80583 14.2229V14.2206C2.69798 13.9108 2.47144 13.1658 2.50298 12.4436C2.55758 11.1711 3.00523 10.39 3.12359 10.1944C3.43657 9.6597 3.84417 9.18128 4.32818 8.78047C4.755 8.4352 5.23891 8.16057 5.75999 7.96788C6.08501 7.83863 6.42361 7.74328 6.76992 7.68348C7.29183 7.59616 7.82487 7.58859 8.34925 7.66105V8.26236C7.738 8.27195 7.13427 8.3933 6.57051 8.6199Z" fill="#69C9D0"/>
<path d="M12.84 2.52897H10.8052V12.8849C10.8052 13.2489 10.8052 13.6 10.6791 13.9507C10.4735 14.5104 10.0364 15.0158 9.45378 15.2401C8.57916 15.5768 7.89547 15.5395 7.07987 15.023C6.8774 14.8894 6.69933 14.7246 6.55286 14.5354C7.24773 14.8907 7.8697 14.8845 8.6402 14.5881C9.22249 14.3638 9.66031 13.8584 9.86514 13.2984C9.99333 12.9486 9.99164 12.5966 9.99164 12.2329V1.875H12.8013C12.8013 1.875 12.7698 2.13243 12.84 2.52897ZM16.6878 5.6194V6.19569C16.3579 6.12039 16.0382 6.00904 15.7348 5.86383C15.1471 5.58267 14.6893 5.1247 14.5997 5.03206C14.7036 5.09744 14.8114 5.15691 14.9226 5.21018C15.6371 5.55212 16.3408 5.65418 16.6878 5.6194Z" fill="#69C9D0"/>
</svg>
