<svg width="25" height="24" viewBox="0 0 25 24" fill="none" xmlns="http://www.w3.org/2000/svg">
<path fill-rule="evenodd" clip-rule="evenodd" d="M4.95835 4.73508C3.47296 4.80867 2.27978 5.97175 2.18338 7.45583C2.09102 8.87769 2 10.6272 2 12C2 13.3728 2.09102 15.1223 2.18338 16.5442C2.27978 18.0283 3.47296 19.1913 4.95835 19.2649C7.10929 19.3715 10.1836 19.5 12.5 19.5C14.8164 19.5 17.8907 19.3715 20.0417 19.2649C21.527 19.1913 22.7202 18.0283 22.8166 16.5442C22.909 15.1223 23 13.3728 23 12C23 10.6272 22.909 8.8777 22.8166 7.45583C22.7202 5.97175 21.527 4.80867 20.0417 4.73508C17.8907 4.62852 14.8164 4.5 12.5 4.5C10.1836 4.5 7.10929 4.62852 4.95835 4.73508ZM16.25 12L10.25 15V9L16.25 12Z" fill="black"/>
</svg>
