<svg width="199" height="36" viewBox="0 0 199 36" fill="none" xmlns="http://www.w3.org/2000/svg">
<path d="M16.5867 11.455V16.9103V19.0908V24.546H21.1831V19.0908V16.9103V11.455H16.5867Z" fill="#FAB908"/>
<path d="M2.79814 19.0226C4.06737 19.0226 5.09628 18.0152 5.09628 16.7726C5.09628 15.5299 4.06737 14.5226 2.79814 14.5226C1.52891 14.5226 0.5 15.5299 0.5 16.7726C0.5 18.0152 1.52891 19.0226 2.79814 19.0226Z" fill="#0066D9"/>
<path d="M2.79814 21.4774C4.06737 21.4774 5.09628 20.47 5.09628 19.2274C5.09628 17.9847 4.06737 16.9774 2.79814 16.9774C1.52891 16.9774 0.5 17.9847 0.5 19.2274C0.5 20.47 1.52891 21.4774 2.79814 21.4774Z" fill="#0066D9"/>
<path d="M5.09628 16.7729H0.5V19.2275H5.09628V16.7729Z" fill="#0066D9"/>
<path d="M34.9718 21.4774C36.2411 21.4774 37.2699 20.47 37.2699 19.2274C37.2699 17.9847 36.2411 16.9774 34.9718 16.9774C33.7026 16.9774 32.6736 17.9847 32.6736 19.2274C32.6736 20.47 33.7026 21.4774 34.9718 21.4774Z" fill="#4285F4"/>
<path d="M34.9718 19.0226C36.2411 19.0226 37.2699 18.0152 37.2699 16.7726C37.2699 15.5299 36.2411 14.5226 34.9718 14.5226C33.7026 14.5226 32.6736 15.5299 32.6736 16.7726C32.6736 18.0152 33.7026 19.0226 34.9718 19.0226Z" fill="#4285F4"/>
<path d="M32.6736 19.2278H37.2699V16.7732H32.6736V19.2278Z" fill="#4285F4"/>
<path d="M10.7369 26.3867C12.0061 26.3867 13.035 25.3793 13.035 24.1367C13.035 22.894 12.0061 21.8867 10.7369 21.8867C9.46768 21.8867 8.43878 22.894 8.43878 24.1367C8.43878 25.3793 9.46768 26.3867 10.7369 26.3867Z" fill="#EA4335"/>
<path d="M10.7369 28.8414C12.0061 28.8414 13.035 27.8341 13.035 26.5914C13.035 25.3488 12.0061 24.3413 10.7369 24.3413C9.46768 24.3413 8.43878 25.3488 8.43878 26.5914C8.43878 27.8341 9.46768 28.8414 10.7369 28.8414Z" fill="#EA4335"/>
<path d="M13.035 24.137H8.43878V26.5916H13.035V24.137Z" fill="#EA4335"/>
<path d="M10.7369 11.6592C12.0061 11.6592 13.035 10.6518 13.035 9.40919C13.035 8.16655 12.0061 7.15918 10.7369 7.15918C9.46768 7.15918 8.43878 8.16655 8.43878 9.40919C8.43878 10.6518 9.46768 11.6592 10.7369 11.6592Z" fill="#EA4335"/>
<path d="M10.7369 19.6362C12.0061 19.6362 13.035 18.6288 13.035 17.3862C13.035 16.1435 12.0061 15.1362 10.7369 15.1362C9.46768 15.1362 8.43878 16.1435 8.43878 17.3862C8.43878 18.6288 9.46768 19.6362 10.7369 19.6362Z" fill="#EA4335"/>
<path d="M13.035 9.40894H8.43878V17.4374H13.035V9.40894Z" fill="#EA4335"/>
<path d="M27.033 14.114C28.3022 14.114 29.3311 13.1066 29.3311 11.864C29.3311 10.6213 28.3022 9.61395 27.033 9.61395C25.7638 9.61395 24.7349 10.6213 24.7349 11.864C24.7349 13.1066 25.7638 14.114 27.033 14.114Z" fill="#34A853"/>
<path d="M27.033 11.6592C28.3022 11.6592 29.3311 10.6518 29.3311 9.40919C29.3311 8.16655 28.3022 7.15918 27.033 7.15918C25.7638 7.15918 24.7349 8.16655 24.7349 9.40919C24.7349 10.6518 25.7638 11.6592 27.033 11.6592Z" fill="#34A853"/>
<path d="M24.7346 11.8636H29.331V9.40906H24.7346V11.8636Z" fill="#34A853"/>
<path d="M18.8849 6.95479C20.1541 6.95479 21.1831 5.94744 21.1831 4.70478C21.1831 3.46214 20.1541 2.45477 18.8849 2.45477C17.6157 2.45477 16.5867 3.46214 16.5867 4.70478C16.5867 5.94744 17.6157 6.95479 18.8849 6.95479Z" fill="#FAB908"/>
<path d="M18.8849 4.50002C20.1541 4.50002 21.1831 3.49265 21.1831 2.25001C21.1831 1.00737 20.1541 0 18.8849 0C17.6157 0 16.5867 1.00737 16.5867 2.25001C16.5867 3.49265 17.6157 4.50002 18.8849 4.50002Z" fill="#FAB908"/>
<path d="M16.587 4.70457H21.1833V2.25H16.587V4.70457Z" fill="#FAB908"/>
<path d="M18.8849 36C20.1541 36 21.1831 34.9927 21.1831 33.75C21.1831 32.5074 20.1541 31.5 18.8849 31.5C17.6157 31.5 16.5867 32.5074 16.5867 33.75C16.5867 34.9927 17.6157 36 18.8849 36Z" fill="#FAB908"/>
<path d="M18.8849 33.5459C20.1541 33.5459 21.1831 32.5385 21.1831 31.2958C21.1831 30.0532 20.1541 29.0458 18.8849 29.0458C17.6157 29.0458 16.5867 30.0532 16.5867 31.2958C16.5867 32.5385 17.6157 33.5459 18.8849 33.5459Z" fill="#FAB908"/>
<path d="M16.587 33.7503H21.1833V31.2957H16.587V33.7503Z" fill="#FAB908"/>
<path d="M27.033 28.8414C28.3022 28.8414 29.3311 27.8341 29.3311 26.5914C29.3311 25.3488 28.3022 24.3413 27.033 24.3413C25.7638 24.3413 24.7349 25.3488 24.7349 26.5914C24.7349 27.8341 25.7638 28.8414 27.033 28.8414Z" fill="#34A853"/>
<path d="M27.033 20.8638C28.3022 20.8638 29.3311 19.8565 29.3311 18.6138C29.3311 17.3712 28.3022 16.3638 27.033 16.3638C25.7638 16.3638 24.7349 17.3712 24.7349 18.6138C24.7349 19.8565 25.7638 20.8638 27.033 20.8638Z" fill="#34A853"/>
<path d="M24.7346 26.5912H29.331V18.6138H24.7346V26.5912Z" fill="#34A853"/>
<path d="M18.8849 13.7047C20.1541 13.7047 21.1831 12.6973 21.1831 11.4547C21.1831 10.2121 20.1541 9.20465 18.8849 9.20465C17.6157 9.20465 16.5867 10.2121 16.5867 11.4547C16.5867 12.6973 17.6157 13.7047 18.8849 13.7047Z" fill="#FAB908"/>
<path d="M18.8849 26.7959C20.1541 26.7959 21.1831 25.7885 21.1831 24.5458C21.1831 23.3032 20.1541 22.2958 18.8849 22.2958C17.6157 22.2958 16.5867 23.3032 16.5867 24.5458C16.5867 25.7885 17.6157 26.7959 18.8849 26.7959Z" fill="#FAB908"/>
<path fill-rule="evenodd" clip-rule="evenodd" d="M121.897 23.6467H119.983V9.06628H125.059C126.32 9.06628 127.412 9.47695 128.334 10.2982C129.256 11.1196 129.717 12.1547 129.717 13.4037C129.717 14.6527 129.256 15.6879 128.334 16.5092C127.412 17.3306 126.32 17.7413 125.059 17.7413H121.897V23.6467ZM121.897 15.9493H125.1C125.904 15.9493 126.549 15.6845 127.034 15.1551C127.519 14.6256 127.763 14.0418 127.763 13.4037C127.763 12.7657 127.519 12.1819 127.034 11.6525C126.549 11.123 125.904 10.8583 125.1 10.8583H121.897V15.9493ZM131.304 14.87C132.288 13.8517 133.543 13.3426 135.069 13.3426C136.594 13.3426 137.849 13.8483 138.833 14.8598C139.818 15.8712 140.31 17.1371 140.31 18.6576C140.31 20.1781 139.818 21.444 138.833 22.4555C137.849 23.4669 136.594 23.9725 135.069 23.9725C133.543 23.9725 132.288 23.4669 131.304 22.4555C130.32 21.444 129.828 20.1781 129.828 18.6576C129.828 17.1371 130.32 15.8746 131.304 14.87ZM132.718 21.2845C133.384 21.9362 134.168 22.262 135.069 22.262C135.97 22.262 136.75 21.9328 137.409 21.2743C138.067 20.6159 138.396 19.7437 138.396 18.6576C138.396 17.5715 138.067 16.6993 137.409 16.0408C136.75 15.3824 135.97 15.0532 135.069 15.0532C134.168 15.0532 133.387 15.3824 132.728 16.0408C132.07 16.6993 131.741 17.5715 131.741 18.6576C131.741 19.7437 132.066 20.6193 132.718 21.2845ZM146.077 23.9725C144.76 23.9725 143.623 23.4634 142.666 22.4452C141.71 21.4271 141.231 20.1645 141.231 18.6576C141.231 17.1507 141.71 15.8882 142.666 14.87C143.623 13.8517 144.76 13.3426 146.077 13.3426C146.854 13.3426 147.551 13.5056 148.167 13.8314C148.785 14.1572 149.246 14.5645 149.55 15.0532H149.634L149.55 13.6685V9.06628H151.465V23.6467H149.634V22.262H149.55C149.246 22.7507 148.785 23.158 148.167 23.4839C147.551 23.8096 146.854 23.9725 146.077 23.9725ZM146.39 22.262C147.291 22.262 148.057 21.9362 148.688 21.2845C149.318 20.6329 149.634 19.7573 149.634 18.6576C149.634 17.558 149.318 16.6823 148.688 16.0307C148.057 15.3791 147.291 15.0532 146.39 15.0532C145.502 15.0532 144.739 15.3824 144.101 16.0408C143.464 16.6993 143.144 17.5715 143.144 18.6576C143.144 19.7437 143.464 20.6159 144.101 21.2743C144.739 21.9328 145.502 22.262 146.39 22.262ZM158.105 23.9725C156.58 23.9725 155.325 23.4669 154.341 22.4555C153.356 21.444 152.864 20.1781 152.864 18.6576C152.864 17.1371 153.356 15.8712 154.341 14.8598C155.325 13.8483 156.58 13.3426 158.105 13.3426C159.242 13.3426 160.185 13.6141 160.934 14.1572C161.683 14.7003 162.23 15.3858 162.577 16.2139L160.83 16.9267C160.303 15.6777 159.354 15.0532 157.981 15.0532C157.135 15.0532 156.39 15.3927 155.745 16.0714C155.1 16.7502 154.778 17.6122 154.778 18.6576C154.778 19.7029 155.1 20.565 155.745 21.2438C156.39 21.9226 157.135 22.262 157.981 22.262C159.409 22.262 160.393 21.6375 160.934 20.3886L162.639 21.1012C162.293 21.9158 161.735 22.598 160.965 23.1478C160.195 23.6976 159.242 23.9725 158.105 23.9725ZM167.179 23.9725C166.098 23.9725 165.193 23.6671 164.465 23.0562C163.737 22.4452 163.373 21.6375 163.373 20.6329C163.373 19.5468 163.803 18.695 164.663 18.0773C165.523 17.4596 166.583 17.1507 167.845 17.1507C168.968 17.1507 169.89 17.3543 170.611 17.7616V17.4765C170.611 16.7434 170.355 16.1563 169.842 15.7151C169.329 15.2738 168.698 15.0532 167.95 15.0532C167.394 15.0532 166.892 15.1822 166.441 15.4402C165.991 15.6981 165.683 16.051 165.516 16.499L163.768 15.7659C164.004 15.1686 164.469 14.6154 165.162 14.1064C165.855 13.5972 166.77 13.3426 167.907 13.3426C169.211 13.3426 170.293 13.716 171.153 14.4627C172.012 15.2093 172.442 16.2614 172.442 17.6191V23.6467H170.611V22.262H170.528C169.765 23.4024 168.65 23.9725 167.179 23.9725ZM167.491 22.262C168.282 22.262 168.999 21.9735 169.644 21.3965C170.289 20.8196 170.611 20.1374 170.611 19.35C170.071 18.9156 169.259 18.6983 168.178 18.6983C167.248 18.6983 166.548 18.8951 166.077 19.2889C165.606 19.6826 165.37 20.1441 165.37 20.6736C165.37 21.1623 165.585 21.5493 166.015 21.8344C166.445 22.1195 166.937 22.262 167.491 22.262ZM178.043 23.9725C176.906 23.9725 175.966 23.701 175.225 23.158C174.482 22.615 173.938 21.9362 173.591 21.1216L175.297 20.4292C175.838 21.6782 176.76 22.3027 178.063 22.3027C178.66 22.3027 179.149 22.1737 179.529 21.9158C179.911 21.6579 180.102 21.3185 180.102 20.8977C180.102 20.2459 179.637 19.8048 178.708 19.574L176.649 19.0852C175.997 18.9223 175.38 18.6135 174.798 18.1587C174.216 17.7039 173.925 17.0896 173.925 16.3158C173.925 15.4333 174.323 14.7172 175.12 14.1674C175.918 13.6176 176.864 13.3426 177.96 13.3426C178.861 13.3426 179.665 13.5429 180.372 13.9434C181.079 14.3439 181.586 14.9175 181.891 15.6642L180.227 16.3361C179.852 15.4537 179.075 15.0125 177.897 15.0125C177.329 15.0125 176.85 15.1279 176.462 15.3586C176.073 15.5895 175.879 15.9017 175.879 16.2954C175.879 16.8656 176.33 17.2525 177.231 17.4562L179.249 17.9245C180.205 18.1417 180.913 18.515 181.371 19.0445C181.829 19.574 182.057 20.1713 182.057 20.8366C182.057 21.7325 181.683 22.4792 180.934 23.0765C180.185 23.6739 179.221 23.9725 178.043 23.9725ZM187.783 23.8096C186.715 23.8096 185.901 23.5314 185.339 22.9748C184.777 22.4181 184.496 21.6307 184.496 20.6126V15.3791H182.707V13.6685H184.496V10.6139H186.41V13.6685H188.906V15.3791H186.41V20.47C186.41 21.556 186.868 22.099 187.783 22.099C188.129 22.099 188.421 22.0448 188.656 21.9362L189.322 23.5449C188.906 23.7214 188.393 23.8096 187.783 23.8096ZM194.485 23.9725C193.348 23.9725 192.409 23.701 191.668 23.158C190.926 22.615 190.381 21.9362 190.035 21.1216L191.74 20.4292C192.281 21.6782 193.203 22.3027 194.506 22.3027C195.103 22.3027 195.591 22.1737 195.973 21.9158C196.355 21.6579 196.544 21.3185 196.544 20.8977C196.544 20.2459 196.08 19.8048 195.151 19.574L193.092 19.0852C192.44 18.9223 191.824 18.6135 191.241 18.1587C190.659 17.7039 190.367 17.0896 190.367 16.3158C190.367 15.4333 190.766 14.7172 191.563 14.1674C192.361 13.6176 193.307 13.3426 194.403 13.3426C195.304 13.3426 196.108 13.5429 196.816 13.9434C197.523 14.3439 198.029 14.9175 198.333 15.6642L196.67 16.3361C196.295 15.4537 195.519 15.0125 194.34 15.0125C193.771 15.0125 193.293 15.1279 192.905 15.3586C192.517 15.5895 192.323 15.9017 192.323 16.2954C192.323 16.8656 192.773 17.2525 193.675 17.4562L195.692 17.9245C196.649 18.1417 197.356 18.515 197.814 19.0445C198.271 19.574 198.5 20.1713 198.5 20.8366C198.5 21.7325 198.125 22.4792 197.377 23.0765C196.628 23.6739 195.665 23.9725 194.485 23.9725Z" fill="#14142B"/>
<path d="M47.3141 15.6136C47.3141 11 51.2628 7.26129 55.9751 7.26129C58.575 7.26129 60.4275 8.26357 61.8249 9.56812L60.1674 11.175C59.1763 10.2522 57.8275 9.53631 55.9751 9.53631C52.5465 9.53631 49.8654 12.2408 49.8654 15.5977C49.8654 18.9546 52.5465 21.6591 55.9751 21.6591C58.2013 21.6591 59.4688 20.7841 60.2812 19.9886C60.9475 19.3364 61.3862 18.3978 61.5486 17.125H55.9751V14.8499H63.8235C63.9048 15.2636 63.9536 15.7408 63.9536 16.2818C63.9536 18 63.4823 20.1159 61.9387 21.6114C60.4275 23.1386 58.51 23.95 55.9751 23.95C51.2628 23.95 47.3141 20.2114 47.3141 15.6136ZM70.2096 13.3068C73.2482 13.3068 75.7181 15.5659 75.7181 18.684C75.7181 21.7864 73.2482 24.0614 70.2096 24.0614C67.171 24.0614 64.701 21.7864 64.701 18.684C64.701 15.5659 67.171 13.3068 70.2096 13.3068ZM70.2096 21.9295C71.8671 21.9295 73.3132 20.5932 73.3132 18.6682C73.3132 16.7273 71.8671 15.4068 70.2096 15.4068C68.5359 15.4068 67.106 16.7273 67.106 18.6682C67.106 20.5932 68.5522 21.9295 70.2096 21.9295ZM82.2342 13.3068C85.2728 13.3068 87.7428 15.5659 87.7428 18.684C87.7428 21.7864 85.2728 24.0614 82.2342 24.0614C79.1955 24.0614 76.7257 21.7864 76.7257 18.684C76.7257 15.5659 79.1955 13.3068 82.2342 13.3068ZM82.2342 21.9295C83.8916 21.9295 85.3378 20.5932 85.3378 18.6682C85.3378 16.7273 83.9079 15.4068 82.2342 15.4068C80.5605 15.4068 79.1305 16.7273 79.1305 18.6682C79.1305 20.5932 80.5767 21.9295 82.2342 21.9295ZM96.9887 13.4818H99.2961V23.1386C99.2961 27.116 96.9074 28.7387 94.08 28.7387C91.4151 28.7387 89.8064 26.9887 89.2052 25.5569L91.3013 24.6977C91.6751 25.5728 92.5851 26.6069 94.0637 26.6069C95.8675 26.6069 96.9887 25.5092 96.9887 23.4569V22.6773H96.9074C96.3712 23.3296 95.3312 23.9023 94.015 23.9023C91.2689 23.9023 88.7502 21.5477 88.7502 18.5409C88.7502 15.5023 91.2689 13.1477 94.015 13.1477C95.3312 13.1477 96.3712 13.7204 96.9074 14.3568H96.9887V13.4818ZM94.2262 21.7864C95.8674 21.7864 97.1674 20.4341 97.1511 18.5409C97.1511 16.6477 95.8674 15.2636 94.2262 15.2636C92.5688 15.2636 91.1714 16.6477 91.1714 18.5409C91.1714 20.4182 92.5688 21.7864 94.2262 21.7864ZM100.937 23.6954V7.89766H103.342V23.6954H100.937ZM109.956 21.9295C111.191 21.9295 112.035 21.3409 112.669 20.45L114.538 21.675C113.921 22.55 112.474 24.0614 109.956 24.0614C106.835 24.0614 104.512 21.6909 104.512 18.684C104.512 15.4863 106.868 13.3068 109.696 13.3068C112.539 13.3068 113.937 15.5181 114.392 16.7273L114.636 17.3318L107.29 20.3068C107.86 21.3727 108.721 21.9295 109.956 21.9295ZM109.777 15.375C108.542 15.375 106.835 16.4409 106.901 18.5091L111.808 16.5204C111.548 15.8364 110.736 15.375 109.777 15.375Z" fill="#14142B"/>
</svg>
