<svg width="74" height="74" viewBox="0 0 74 74" fill="none" xmlns="http://www.w3.org/2000/svg">
<g clip-path="url(#clip0_301_54)">
<path d="M32 68C26.0985 68 20.3119 66.368 15.28 63.2845C10.2482 60.2009 6.16702 55.786 3.48779 50.5277C0.808558 45.2694 -0.364381 39.3726 0.098643 33.4893C0.561671 27.606 2.64263 21.9653 6.11145 17.1909C9.58028 12.4164 14.3018 8.69427 19.7541 6.43585C25.2064 4.17744 31.177 3.47077 37.0059 4.39397C42.8348 5.31717 48.2948 7.83428 52.7823 11.667C57.2699 15.4997 60.6101 20.4988 62.4338 26.1115L59.3904 27.1003C57.7491 22.0489 54.7429 17.5498 50.7041 14.1003C46.6653 10.6509 41.7513 8.38546 36.5053 7.55457C31.2593 6.72369 25.8858 7.3597 20.9787 9.39227C16.0717 11.4248 11.8222 14.7748 8.70031 19.0718C5.57837 23.3688 3.7055 28.4454 3.28878 33.7404C2.87205 39.0354 3.9277 44.3425 6.33901 49.0749C8.75032 53.8074 12.4234 57.7809 16.952 60.556C21.4807 63.3312 26.6886 64.8 32 64.8L32 68Z" fill="black"/>
<path d="M40.404 33.2C41.272 33.2 42.0233 33.3447 42.658 33.634C43.302 33.9233 43.7967 34.334 44.142 34.866C44.4873 35.398 44.66 36.028 44.66 36.756C44.66 37.4747 44.4873 38.1047 44.142 38.646C43.7967 39.178 43.302 39.5887 42.658 39.878C42.0233 40.158 41.272 40.298 40.404 40.298H38.43V43H36.162V33.2H40.404ZM40.278 38.45C40.9593 38.45 41.4773 38.3053 41.832 38.016C42.1867 37.7173 42.364 37.2973 42.364 36.756C42.364 36.2053 42.1867 35.7853 41.832 35.496C41.4773 35.1973 40.9593 35.048 40.278 35.048H38.43V38.45H40.278ZM50.6019 43.168C49.5846 43.168 48.6652 42.9487 47.8439 42.51C47.0319 42.0713 46.3926 41.4693 45.9259 40.704C45.4686 39.9293 45.2399 39.0613 45.2399 38.1C45.2399 37.1387 45.4686 36.2753 45.9259 35.51C46.3926 34.7353 47.0319 34.1287 47.8439 33.69C48.6652 33.2513 49.5846 33.032 50.6019 33.032C51.6192 33.032 52.5339 33.2513 53.3459 33.69C54.1579 34.1287 54.7972 34.7353 55.2639 35.51C55.7306 36.2753 55.9639 37.1387 55.9639 38.1C55.9639 39.0613 55.7306 39.9293 55.2639 40.704C54.7972 41.4693 54.1579 42.0713 53.3459 42.51C52.5339 42.9487 51.6192 43.168 50.6019 43.168ZM50.6019 41.236C51.1806 41.236 51.7032 41.1053 52.1699 40.844C52.6366 40.5733 53.0006 40.2 53.2619 39.724C53.5326 39.248 53.6679 38.7067 53.6679 38.1C53.6679 37.4933 53.5326 36.952 53.2619 36.476C53.0006 36 52.6366 35.6313 52.1699 35.37C51.7032 35.0993 51.1806 34.964 50.6019 34.964C50.0232 34.964 49.5006 35.0993 49.0339 35.37C48.5672 35.6313 48.1986 36 47.9279 36.476C47.6666 36.952 47.5359 37.4933 47.5359 38.1C47.5359 38.7067 47.6666 39.248 47.9279 39.724C48.1986 40.2 48.5672 40.5733 49.0339 40.844C49.5006 41.1053 50.0232 41.236 50.6019 41.236ZM57.1084 33.2H61.5604C62.6244 33.2 63.5624 33.4053 64.3744 33.816C65.1957 34.2173 65.8304 34.7867 66.2784 35.524C66.7357 36.2613 66.9644 37.12 66.9644 38.1C66.9644 39.08 66.7357 39.9387 66.2784 40.676C65.8304 41.4133 65.1957 41.9873 64.3744 42.398C63.5624 42.7993 62.6244 43 61.5604 43H57.1084V33.2ZM61.4484 41.138C62.4284 41.138 63.2077 40.8673 63.7864 40.326C64.3744 39.7753 64.6684 39.0333 64.6684 38.1C64.6684 37.1667 64.3744 36.4293 63.7864 35.888C63.2077 35.3373 62.4284 35.062 61.4484 35.062H59.3764V41.138H61.4484Z" fill="#CD4631"/>
<path d="M40.908 56.168C39.8907 56.168 38.9713 55.9487 38.15 55.51C37.338 55.0713 36.6987 54.4693 36.232 53.704C35.7747 52.9293 35.546 52.0613 35.546 51.1C35.546 50.1387 35.7747 49.2753 36.232 48.51C36.6987 47.7353 37.338 47.1287 38.15 46.69C38.9713 46.2513 39.8907 46.032 40.908 46.032C41.9253 46.032 42.84 46.2513 43.652 46.69C44.464 47.1287 45.1033 47.7353 45.57 48.51C46.0367 49.2753 46.27 50.1387 46.27 51.1C46.27 52.0613 46.0367 52.9293 45.57 53.704C45.1033 54.4693 44.464 55.0713 43.652 55.51C42.84 55.9487 41.9253 56.168 40.908 56.168ZM40.908 54.236C41.4867 54.236 42.0093 54.1053 42.476 53.844C42.9427 53.5733 43.3067 53.2 43.568 52.724C43.8387 52.248 43.974 51.7067 43.974 51.1C43.974 50.4933 43.8387 49.952 43.568 49.476C43.3067 49 42.9427 48.6313 42.476 48.37C42.0093 48.0993 41.4867 47.964 40.908 47.964C40.3293 47.964 39.8067 48.0993 39.34 48.37C38.8733 48.6313 38.5047 49 38.234 49.476C37.9727 49.952 37.842 50.4933 37.842 51.1C37.842 51.7067 37.9727 52.248 38.234 52.724C38.5047 53.2 38.8733 53.5733 39.34 53.844C39.8067 54.1053 40.3293 54.236 40.908 54.236ZM51.9785 47.964C51.1945 47.964 50.6018 48.1367 50.2005 48.482C49.7992 48.818 49.5985 49.3267 49.5985 50.008V50.61H53.6305V52.43H49.5985V56H47.3305V50.022C47.3305 48.762 47.7225 47.782 48.5065 47.082C49.2998 46.382 50.4058 46.032 51.8245 46.032C52.3845 46.032 52.9118 46.0927 53.4065 46.214C53.9012 46.326 54.3305 46.494 54.6945 46.718L53.9945 48.51C53.4345 48.146 52.7625 47.964 51.9785 47.964ZM40.852 69.168C39.8533 69.168 38.948 68.9533 38.136 68.524C37.3333 68.0853 36.6987 67.4833 36.232 66.718C35.7747 65.9433 35.546 65.0707 35.546 64.1C35.546 63.1293 35.7747 62.2613 36.232 61.496C36.6987 60.7213 37.3333 60.1193 38.136 59.69C38.948 59.2513 39.858 59.032 40.866 59.032C41.7153 59.032 42.4807 59.1813 43.162 59.48C43.8527 59.7787 44.4313 60.208 44.898 60.768L43.442 62.112C42.7793 61.3467 41.958 60.964 40.978 60.964C40.3713 60.964 39.83 61.0993 39.354 61.37C38.878 61.6313 38.5047 62 38.234 62.476C37.9727 62.952 37.842 63.4933 37.842 64.1C37.842 64.7067 37.9727 65.248 38.234 65.724C38.5047 66.2 38.878 66.5733 39.354 66.844C39.83 67.1053 40.3713 67.236 40.978 67.236C41.958 67.236 42.7793 66.8487 43.442 66.074L44.898 67.418C44.4313 67.9873 43.8527 68.4213 43.162 68.72C42.4713 69.0187 41.7013 69.168 40.852 69.168ZM50.2796 59.032C51.1849 59.032 51.9736 59.2093 52.6456 59.564C53.3176 59.9187 53.8402 60.4413 54.2136 61.132C54.5869 61.8227 54.7736 62.658 54.7736 63.638V69H52.5056V66.648H48.0256V69H45.7856V63.638C45.7856 62.658 45.9722 61.8227 46.3456 61.132C46.7189 60.4413 47.2416 59.9187 47.9136 59.564C48.5856 59.2093 49.3742 59.032 50.2796 59.032ZM52.5056 64.828V63.428C52.5056 62.616 52.3049 62.0047 51.9036 61.594C51.5022 61.174 50.9562 60.964 50.2656 60.964C49.5656 60.964 49.0149 61.174 48.6136 61.594C48.2216 62.0047 48.0256 62.616 48.0256 63.428V64.828H52.5056ZM59.6722 69.168C58.8975 69.168 58.1462 69.0653 57.4182 68.86C56.6995 68.6453 56.1208 68.37 55.6822 68.034L56.4522 66.326C56.8722 66.634 57.3715 66.8813 57.9502 67.068C58.5288 67.2547 59.1075 67.348 59.6862 67.348C60.3302 67.348 60.8062 67.2547 61.1142 67.068C61.4222 66.872 61.5762 66.6153 61.5762 66.298C61.5762 66.0647 61.4828 65.8733 61.2962 65.724C61.1188 65.5653 60.8855 65.4393 60.5962 65.346C60.3162 65.2527 59.9335 65.15 59.4482 65.038C58.7015 64.8607 58.0902 64.6833 57.6142 64.506C57.1382 64.3287 56.7275 64.044 56.3822 63.652C56.0462 63.26 55.8782 62.7373 55.8782 62.084C55.8782 61.5147 56.0322 61.0013 56.3402 60.544C56.6482 60.0773 57.1102 59.7087 57.7262 59.438C58.3515 59.1673 59.1122 59.032 60.0082 59.032C60.6335 59.032 61.2448 59.1067 61.8422 59.256C62.4395 59.4053 62.9622 59.62 63.4102 59.9L62.7102 61.622C61.8048 61.1087 60.8995 60.852 59.9942 60.852C59.3595 60.852 58.8882 60.9547 58.5802 61.16C58.2815 61.3653 58.1322 61.636 58.1322 61.972C58.1322 62.308 58.3048 62.56 58.6502 62.728C59.0048 62.8867 59.5415 63.0453 60.2602 63.204C61.0068 63.3813 61.6182 63.5587 62.0942 63.736C62.5702 63.9133 62.9762 64.1933 63.3122 64.576C63.6575 64.9587 63.8302 65.4767 63.8302 66.13C63.8302 66.69 63.6715 67.2033 63.3542 67.67C63.0462 68.1273 62.5795 68.4913 61.9542 68.762C61.3288 69.0327 60.5682 69.168 59.6722 69.168ZM71.8642 61.944C71.0242 61.4587 70.1235 61.146 69.1622 61.006V69H66.8942V61.006C65.9329 61.146 65.0275 61.4587 64.1782 61.944L63.4082 60.25C64.0802 59.8487 64.8082 59.5453 65.5922 59.34C66.3762 59.1347 67.1835 59.032 68.0142 59.032C68.8542 59.032 69.6662 59.1347 70.4502 59.34C71.2435 59.5453 71.9715 59.8487 72.6342 60.25L71.8642 61.944Z" fill="black"/>
</g>
<defs>
<clipPath id="clip0_301_54">
<rect width="74" height="74" fill="white"/>
</clipPath>
</defs>
</svg>
