<svg width="129" height="34" viewBox="0 0 129 34" fill="none" xmlns="http://www.w3.org/2000/svg">
<path d="M17.7377 0C14.3283 0 10.9956 0.997021 8.16087 2.86496C5.32623 4.73301 3.11685 7.38807 1.8121 10.4944C0.507451 13.6007 0.166096 17.0189 0.831258 20.3165C1.49632 23.6142 3.13801 26.6433 5.54876 29.0208C7.95951 31.3983 11.031 33.0174 14.3748 33.6733C17.7185 34.3293 21.1844 33.9927 24.3341 32.7059C27.4839 31.4192 30.1761 29.2403 32.0702 26.4447C33.9643 23.6491 34.9752 20.3623 34.9752 17C34.9752 12.4913 33.1591 8.16731 29.9265 4.97922C26.6937 1.79103 22.3094 0 17.7377 0ZM25.6479 24.5164C25.5746 24.6365 25.4777 24.7411 25.3631 24.824C25.2484 24.9069 25.1181 24.9664 24.9798 24.9992C24.8417 25.0321 24.6982 25.0374 24.5578 25.0151C24.4174 24.9928 24.2829 24.9432 24.1622 24.8692C20.1176 22.427 15.0275 21.8843 9.0294 23.2275C8.89292 23.2596 8.75143 23.2647 8.61294 23.2423C8.47455 23.2201 8.34188 23.1709 8.22295 23.0978C8.10391 23.0246 8.00082 22.9288 7.91959 22.8159C7.83837 22.7031 7.78081 22.5755 7.75002 22.4405C7.71723 22.3052 7.71201 22.1647 7.73437 22.0272C7.75684 21.8898 7.80648 21.7581 7.88059 21.6396C7.9547 21.5211 8.05186 21.4183 8.16629 21.3369C8.28081 21.2555 8.41047 21.1971 8.54785 21.1652C15.11 19.6863 20.7504 20.324 25.2903 23.0647C25.5325 23.2107 25.7062 23.4455 25.7732 23.7176C25.8403 23.9897 25.7952 24.277 25.6479 24.5164ZM27.7528 19.8898C27.5606 20.1815 27.262 20.3891 26.919 20.4699C26.5759 20.5508 26.2145 20.4985 25.9093 20.324C20.6786 17.4464 14.5035 16.734 8.74049 18.3431C8.56119 18.4418 8.36173 18.4995 8.15686 18.5122C7.95189 18.5249 7.74671 18.4922 7.55628 18.4164C7.36585 18.3407 7.19507 18.224 7.05638 18.0747C6.91769 17.9254 6.8146 17.7473 6.75473 17.5537C6.69487 17.36 6.67972 17.1556 6.71041 16.9553C6.7411 16.7551 6.81681 16.5643 6.93203 16.3967C7.04725 16.2291 7.19908 16.0891 7.37628 15.9868C7.55357 15.8847 7.75173 15.8228 7.9563 15.8061C11.173 14.8929 14.5423 14.6228 17.8663 15.012C21.1903 15.401 24.402 16.4414 27.3126 18.0719C27.6083 18.2614 27.8188 18.5558 27.9007 18.8941C27.9826 19.2325 27.9297 19.5889 27.7528 19.8898ZM27.9316 15.0734C22.4288 11.8172 13.2253 11.5187 7.91509 13.1061C7.50644 13.2285 7.0652 13.1857 6.68855 12.9872C6.3119 12.7888 6.03061 12.4509 5.90656 12.0478C5.78251 11.6449 5.82584 11.2097 6.0271 10.8382C6.22826 10.4668 6.57092 10.1894 6.97956 10.0671C13.074 8.24901 23.1854 8.60177 29.5825 12.3328C29.9113 12.5649 30.1396 12.9106 30.2218 13.3012C30.3039 13.6916 30.234 14.0984 30.026 14.4404C29.8179 14.7824 29.4869 15.0346 29.0989 15.1469C28.7108 15.2592 28.294 15.2233 27.9316 15.0463V15.0734Z" fill="#1ED760"/>
<path d="M52.9606 14.3057C49.6583 13.5188 49.0667 12.9491 49.0667 11.8365C49.0667 10.724 50.0986 10.0185 51.6399 10.0185C53.2915 10.0795 54.8779 10.6756 56.1515 11.7144C56.1776 11.7275 56.2056 11.7343 56.2347 11.7343C56.2628 11.7343 56.2919 11.7275 56.317 11.7144C56.3711 11.7041 56.4202 11.6753 56.4543 11.633L58.0779 9.38078C58.11 9.34018 58.128 9.29 58.128 9.23832C58.128 9.18664 58.11 9.13646 58.0779 9.09586C56.2879 7.65091 54.0346 6.88135 51.7221 6.92504C48.1591 6.92504 45.6692 9.04159 45.6692 12.0536C45.6692 15.2962 47.8152 16.4494 51.5296 17.3313C54.6934 18.0504 55.2299 18.6881 55.2299 19.7328C55.2299 20.7774 54.1429 21.6593 52.4782 21.6593C50.5107 21.6459 48.6254 20.8769 47.2235 19.5157C47.1704 19.498 47.1122 19.498 47.058 19.5157C47.0019 19.5291 46.9497 19.5572 46.9066 19.5971L45.0635 21.7C45.0254 21.7403 45.0033 21.7938 45.0033 21.8492C45.0033 21.9048 45.0254 21.9582 45.0635 21.9985C47.0661 23.7676 49.6663 24.7353 52.3549 24.712C56.1926 24.712 58.6836 22.6361 58.6836 19.4343C58.6284 16.7615 56.9768 15.269 52.9606 14.3057Z" fill="black"/>
<path d="M67.3228 11.0902C66.5276 11.0853 65.7424 11.2602 65.0274 11.6012C64.3114 11.9422 63.6847 12.4404 63.1953 13.0575V11.5651C63.1923 11.5099 63.1672 11.4581 63.1261 11.4203C63.085 11.3825 63.0308 11.3614 62.9757 11.3615H59.9903C59.9342 11.3614 59.88 11.3825 59.8389 11.4203C59.7978 11.4581 59.7737 11.5099 59.7697 11.5651V28.1173C59.7697 28.1749 59.7928 28.2302 59.8339 28.2709C59.876 28.3116 59.9312 28.3344 59.9903 28.3344H62.9476C63.0058 28.3344 63.0619 28.3116 63.103 28.2709C63.1442 28.2302 63.1682 28.1749 63.1682 28.1173V22.921C63.6736 23.5122 64.3064 23.9856 65.0204 24.3069C65.7334 24.6284 66.5106 24.7898 67.2948 24.7797C70.3904 24.7797 73.5272 22.4326 73.5272 17.9282C73.5272 13.4238 70.4175 11.0902 67.3228 11.0902ZM70.0735 17.8739C70.1257 18.3591 70.0746 18.8496 69.9241 19.3143C69.7737 19.779 69.527 20.2078 69.2001 20.5738C68.8722 20.9397 68.4721 21.2347 68.0238 21.4403C67.5746 21.6458 67.0882 21.7573 66.5938 21.7678C66.0974 21.7526 65.6101 21.6386 65.1598 21.4326C64.7095 21.2265 64.3064 20.9327 63.9755 20.5688C63.6436 20.2049 63.3898 19.7785 63.2294 19.3154C63.07 18.8522 63.0068 18.3618 63.0439 17.8739C63.0088 17.3871 63.073 16.8982 63.2344 16.4366C63.3949 15.9751 63.6486 15.5503 63.9805 15.1879C64.3114 14.8256 64.7146 14.533 65.1628 14.3277C65.6121 14.1224 66.0984 14.0088 66.5938 13.9937C67.0942 14.0021 67.5876 14.1134 68.0419 14.3203C68.4961 14.5272 68.9023 14.8252 69.2332 15.1953C69.5651 15.5655 69.8148 15.9997 69.9662 16.4702C70.1177 16.9407 70.1688 17.4372 70.1147 17.9282L70.0735 17.8739Z" fill="black"/>
<path d="M81.5887 11.09C80.2139 11.1142 78.8771 11.5394 77.747 12.3119C76.6168 13.0844 75.7444 14.1696 75.239 15.4307C74.7335 16.6917 74.6182 18.0722 74.907 19.3979C75.1968 20.7235 75.8778 21.935 76.8635 22.8796C77.8503 23.8242 79.0988 24.4595 80.4505 24.7053C81.8023 24.9512 83.1982 24.7967 84.4618 24.2612C85.7243 23.7258 86.7993 22.8334 87.5484 21.6966C88.2985 20.5599 88.6896 19.2297 88.6736 17.8737C88.6605 16.9692 88.468 16.076 88.105 15.2453C87.7409 14.4145 87.2155 13.6626 86.5576 13.0325C85.8998 12.4023 85.1216 11.9064 84.2692 11.5731C83.4168 11.2398 82.5053 11.0756 81.5887 11.09ZM81.5887 21.849C81.0803 21.8424 80.5789 21.7346 80.1136 21.5319C79.6493 21.3292 79.2301 21.0359 78.8832 20.6696C78.5362 20.3034 78.2684 19.8717 78.095 19.4005C77.9215 18.9294 77.8463 18.4285 77.8743 17.928C77.8422 17.4343 77.9134 16.9395 78.0819 16.4739C78.2514 16.0084 78.5161 15.582 78.8591 15.221C79.202 14.86 79.6162 14.5721 80.0755 14.3749C80.5358 14.1778 81.0322 14.0757 81.5336 14.0749C82.043 14.0779 82.5474 14.1826 83.0147 14.3827C83.483 14.5827 83.9052 14.874 84.2562 15.239C84.6062 15.604 84.8789 16.0352 85.0564 16.5066C85.2339 16.9779 85.3131 17.4799 85.2891 17.9822C85.3212 18.4799 85.249 18.9789 85.0775 19.4478C84.906 19.9169 84.6383 20.3461 84.2913 20.7087C83.9433 21.0715 83.5252 21.3598 83.0599 21.5559C82.5945 21.7521 82.0941 21.8518 81.5887 21.849Z" fill="black"/>
<path d="M97.1893 11.3618H93.9291V8.07853C93.9291 8.02326 93.9081 7.96999 93.869 7.92959C93.8309 7.88928 93.7787 7.86494 93.7226 7.86145H90.7643C90.7061 7.86145 90.65 7.8843 90.6088 7.925C90.5677 7.9657 90.5447 8.02097 90.5447 8.07853V11.3618H89.0866C89.0595 11.3618 89.0324 11.3671 89.0074 11.3774C88.9823 11.3875 88.9592 11.4026 88.9402 11.4215C88.9211 11.4403 88.9061 11.4628 88.896 11.4875C88.885 11.5121 88.88 11.5387 88.88 11.5653V14.0753C88.88 14.1306 88.9011 14.1839 88.9392 14.2243C88.9783 14.2646 89.0304 14.2889 89.0866 14.2924H90.4624V20.7776C90.4624 23.3962 91.8373 24.7258 94.3964 24.7258C95.3591 24.7526 96.3108 24.5179 97.1481 24.0474C97.1812 24.0317 97.2103 24.0066 97.2294 23.9753C97.2494 23.944 97.2585 23.9078 97.2585 23.871V21.4831C97.2585 21.4462 97.2504 21.4096 97.2334 21.3766C97.2163 21.3436 97.1923 21.3149 97.1622 21.2932C97.1291 21.2727 97.091 21.2619 97.0519 21.2619C97.0128 21.2619 96.9747 21.2727 96.9416 21.2932C96.4041 21.5616 95.8104 21.701 95.2077 21.7002C94.2591 21.7002 93.8329 21.2796 93.8329 20.3435V14.2924H97.093C97.1511 14.2924 97.2073 14.2696 97.2484 14.2289C97.2895 14.1882 97.3126 14.1329 97.3126 14.0753V11.5653C97.3146 11.5232 97.3036 11.4816 97.2815 11.4454C97.2594 11.4093 97.2274 11.3803 97.1893 11.3618Z" fill="black"/>
<path d="M108.538 11.3757V10.9687C108.538 9.7748 108.992 9.24567 110.024 9.24567C110.598 9.25215 111.167 9.3578 111.703 9.55772C111.733 9.57119 111.766 9.57817 111.799 9.57817C111.832 9.57817 111.865 9.57119 111.896 9.55772C111.922 9.53667 111.944 9.50974 111.958 9.47911C111.972 9.44848 111.979 9.41506 111.978 9.38134V6.89847C111.98 6.85088 111.967 6.80389 111.94 6.76469C111.912 6.72548 111.872 6.69625 111.826 6.68139C111.023 6.47298 110.194 6.3816 109.364 6.41003C106.613 6.41003 105.237 7.92961 105.237 10.7924V11.4164H103.861C103.807 11.4164 103.754 11.4378 103.716 11.476C103.677 11.5143 103.654 11.5659 103.654 11.6199V14.1435C103.654 14.1987 103.676 14.252 103.715 14.2924C103.753 14.3327 103.805 14.3571 103.861 14.3606H105.237V24.3734C105.237 24.4273 105.259 24.4791 105.297 24.5172C105.336 24.5554 105.388 24.5769 105.443 24.5769H108.346C108.402 24.577 108.456 24.5559 108.497 24.5181C108.538 24.4803 108.562 24.4285 108.566 24.3734V14.2927H111.318L115.555 24.292C115.073 25.3502 114.592 25.5537 113.945 25.5537C113.375 25.5385 112.817 25.3846 112.322 25.106C112.294 25.0927 112.264 25.0859 112.232 25.0859C112.201 25.0859 112.171 25.0927 112.143 25.106C112.115 25.1139 112.09 25.1277 112.069 25.1464C112.047 25.1653 112.03 25.1885 112.019 25.2146L111.097 27.3717C111.077 27.4208 111.076 27.4755 111.093 27.5254C111.111 27.5753 111.146 27.6172 111.194 27.6431C112.155 28.187 113.249 28.4636 114.357 28.4435C116.532 28.4435 117.742 27.4395 118.815 24.7397L123.946 11.6606C123.963 11.6293 123.972 11.5944 123.972 11.5588C123.972 11.5234 123.963 11.4885 123.946 11.4571C123.925 11.4308 123.898 11.4097 123.867 11.3956C123.836 11.3815 123.802 11.3747 123.768 11.3757H120.604C120.56 11.3785 120.518 11.3924 120.482 11.4163C120.445 11.44 120.416 11.4729 120.397 11.5114L117.247 20.398L113.849 11.5114C113.832 11.471 113.804 11.4363 113.767 11.4122C113.73 11.388 113.687 11.3753 113.642 11.3757H108.538Z" fill="black"/>
<path d="M101.963 11.3619H99.0053C98.8839 11.3619 98.7847 11.459 98.7847 11.579V24.3052C98.7847 24.4251 98.8839 24.5223 99.0053 24.5223H101.963C102.085 24.5223 102.183 24.4251 102.183 24.3052V11.579C102.183 11.459 102.085 11.3619 101.963 11.3619Z" fill="black"/>
<path d="M100.491 5.55546C100.068 5.55277 99.6543 5.67388 99.3023 5.90323C98.9493 6.13269 98.6745 6.4602 98.5111 6.84419C98.3476 7.22827 98.3035 7.65146 98.3837 8.06029C98.4649 8.46911 98.6665 8.84511 98.9644 9.14061C99.2622 9.436 99.6422 9.63762 100.055 9.71993C100.47 9.80213 100.899 9.76133 101.29 9.60261C101.68 9.44378 102.014 9.17423 102.249 8.82815C102.484 8.48208 102.61 8.07495 102.61 7.65844C102.611 7.3829 102.557 7.10975 102.452 6.85466C102.346 6.59957 102.19 6.36773 101.994 6.17219C101.796 5.97676 101.563 5.82163 101.305 5.71578C101.046 5.60993 100.77 5.55546 100.491 5.55546Z" fill="black"/>
<path d="M126.409 15.4455C126.135 15.4473 125.865 15.3955 125.612 15.2933C125.359 15.1909 125.13 15.0401 124.936 14.8496C124.742 14.6589 124.59 14.4323 124.486 14.183C124.382 13.9336 124.33 13.6664 124.332 13.3969C124.332 12.8499 124.552 12.3254 124.944 11.9386C125.336 11.5519 125.869 11.3346 126.423 11.3346C126.696 11.3328 126.967 11.3846 127.22 11.4869C127.473 11.5892 127.703 11.7401 127.896 11.9306C128.089 12.1213 128.242 12.3478 128.346 12.5972C128.45 12.8465 128.502 13.1138 128.5 13.3834C128.5 13.9302 128.28 14.4548 127.888 14.8416C127.495 15.2282 126.964 15.4455 126.409 15.4455ZM126.409 11.5382C126.035 11.5355 125.669 11.6425 125.357 11.8457C125.045 12.0489 124.802 12.339 124.657 12.6792C124.513 13.0194 124.474 13.3943 124.546 13.7562C124.618 14.1179 124.799 14.4504 125.062 14.7112C125.327 14.972 125.664 15.1492 126.031 15.2205C126.398 15.2918 126.778 15.2538 127.123 15.1114C127.468 14.9691 127.762 14.7287 127.969 14.4211C128.174 14.1133 128.282 13.7521 128.28 13.3834C128.282 13.1416 128.235 12.902 128.143 12.6782C128.05 12.4545 127.913 12.251 127.741 12.0794C127.568 11.9079 127.363 11.7717 127.137 11.6788C126.911 11.5859 126.668 11.5382 126.423 11.5382H126.409ZM126.876 13.6003L127.455 14.4144H126.96L126.436 13.6683H125.983V14.4144H125.556V12.2572H126.533C127.042 12.2572 127.386 12.515 127.386 12.9356C127.389 13.0847 127.342 13.2306 127.253 13.3507C127.163 13.4709 127.036 13.5586 126.89 13.6003H126.876ZM126.519 12.6236H125.983V13.3019H126.519C126.794 13.3019 126.96 13.1798 126.96 12.9628C126.96 12.7457 126.808 12.6236 126.533 12.6236H126.519Z" fill="black"/>
</svg>
